# xmcd CD database file
#
# Track frame offsets:
#        150
#        16226
#        32243
#        41151
#        61089
#        73432
#        86510
#        101960
#        116527
#        128264
#        141035
#        155387
#        171170
#        180161
#        191542
#        200961
#        208136
#        212503
#        239709
#
# Disc length: 3366 seconds
#
# Revision: 0
# Processed by: cddbd v1.5.2PL0 Copyright (c) Steve Scherf et al.
# Submitted via: CUERipper 2.1.2a
#
DISCID=150d2413
DTITLE=Tim Butler - House Sessions
DYEAR=2002
DGENRE=
TTITLE0=Freedom's Waiting
TTITLE1=Tougher Times
TTITLE2=Soup Is Ready
TTITLE3=Wild West
TTITLE4=After Midnite
TTITLE5=Last Train To Paris
TTITLE6=Mr. Brown
TTITLE7=Thunder Road
TTITLE8=No More Blues
TTITLE9=Dirty Cat Rag
TTITLE10=Get's Good When It's Bad
TTITLE11=Nice Lives
TTITLE12=India
TTITLE13=Alioo
TTITLE14=The Peasent
TTITLE15=Sparky's Breakline
TTITLE16=Herman Godfried
TTITLE17=Enigma
TTITLE18=Crazy Fingers
EXTD=
EXTT0=
EXTT1=
EXTT2=
EXTT3=
EXTT4=
EXTT5=
EXTT6=
EXTT7=
EXTT8=
EXTT9=
EXTT10=
EXTT11=
EXTT12=
EXTT13=
EXTT14=
EXTT15=
EXTT16=
EXTT17=
EXTT18=
PLAYORDER=
